<svg width="32" height="32" viewBox="0 0 32 32" fill="none" xmlns="http://www.w3.org/2000/svg">
<circle cx="16" cy="16" r="16" fill="#F0F0F0"/>
<path d="M12.96 24.297C12.036 24.297 11.277 24.011 10.683 23.439C10.089 22.845 9.792 22.064 9.792 21.096C9.792 20.15 10.089 19.259 10.683 18.423C11.277 17.565 12.091 16.795 13.125 16.113C14.159 15.431 15.336 14.881 16.656 14.463C16.942 14.375 17.085 14.188 17.085 13.902V10.899C17.085 9.843 16.92 9.095 16.59 8.655C16.26 8.193 15.809 7.962 15.237 7.962C14.687 7.962 14.181 8.215 13.719 8.721C13.279 9.205 12.96 10.03 12.762 11.196C12.652 11.9 12.41 12.417 12.036 12.747C11.684 13.055 11.321 13.209 10.947 13.209C10.331 13.209 10.023 12.901 10.023 12.285C10.023 11.647 10.199 11.02 10.551 10.404C10.925 9.766 11.409 9.194 12.003 8.688C12.597 8.16 13.246 7.742 13.95 7.434C14.654 7.126 15.358 6.972 16.062 6.972C18.24 6.972 19.329 8.237 19.329 10.767V20.865C19.329 21.789 19.56 22.251 20.022 22.251C20.308 22.251 20.572 22.064 20.814 21.69C21.056 21.294 21.177 20.634 21.177 19.71C21.177 19.358 21.32 19.182 21.606 19.182C21.87 19.182 22.002 19.369 22.002 19.743C22.002 21.349 21.716 22.515 21.144 23.241C20.594 23.945 19.967 24.297 19.263 24.297C18.735 24.297 18.317 24.088 18.009 23.67C17.701 23.23 17.492 22.713 17.382 22.119C17.36 21.899 17.261 21.789 17.085 21.789C16.931 21.767 16.777 21.866 16.623 22.086C16.095 22.812 15.556 23.362 15.006 23.736C14.456 24.11 13.774 24.297 12.96 24.297ZM13.851 22.779C14.423 22.779 14.951 22.581 15.435 22.185C15.919 21.767 16.315 21.217 16.623 20.535C16.931 19.853 17.085 19.083 17.085 18.225V15.816C17.085 15.398 16.854 15.277 16.392 15.453C15.05 15.937 14.005 16.608 13.257 17.466C12.531 18.302 12.168 19.314 12.168 20.502C12.168 22.02 12.729 22.779 13.851 22.779Z" fill="#252E25"/>
</svg>
