<svg width="355" height="393" viewBox="0 0 355 393" fill="none" xmlns="http://www.w3.org/2000/svg">
<g filter="url(#filter0_i_125_23)">
<path d="M225.92 140.093C221.428 123.96 220.254 109.37 211.021 94.0277C200.088 75.8597 186.126 55.7465 170.676 40.9765C146.541 17.9029 99.8893 8.02295 74.9328 22.4679C53.6392 34.7926 30.9672 55.1297 40.4807 84.7376C49.4985 112.803 82.431 152.049 111.619 153.56C134.044 154.722 102.978 137.532 94.7989 135.052C76.3 129.443 51.9059 135.758 38.0614 145.639C15.6485 161.636 10.6257 178.233 20.4412 208.781C26.1619 226.585 38.1226 243.502 52.1044 256.868C64.6625 268.874 87.3809 264.863 100.874 263.63C103.492 263.39 115.921 258.696 116.447 260.131C121.128 272.89 118.922 285.49 121.187 298.145C123.047 308.54 124.507 320.523 129.017 330.52C135.019 343.826 145.241 338.378 154.206 334.139C170.591 326.394 187.411 302.814 205.979 324.263C219.785 340.211 231.745 361.548 247.759 375.135C262.623 387.747 290.242 352.486 293.931 343.901C308.736 309.438 291.441 263.917 283.968 226.487C280.783 210.534 284.541 202.733 296.41 194.814C305.42 188.802 327.042 182.114 339.183 188.048" stroke="url(#paint0_radial_125_23)" stroke-width="30" stroke-linecap="round"/>
</g>
<defs>
<filter id="filter0_i_125_23" x="0.660156" y="0.711182" width="353.525" height="396.109" filterUnits="userSpaceOnUse" color-interpolation-filters="sRGB">
<feFlood flood-opacity="0" result="BackgroundImageFix"/>
<feBlend mode="normal" in="SourceGraphic" in2="BackgroundImageFix" result="shape"/>
<feColorMatrix in="SourceAlpha" type="matrix" values="0 0 0 0 0 0 0 0 0 0 0 0 0 0 0 0 0 0 127 0" result="hardAlpha"/>
<feOffset dy="4"/>
<feGaussianBlur stdDeviation="2"/>
<feComposite in2="hardAlpha" operator="arithmetic" k2="-1" k3="1"/>
<feColorMatrix type="matrix" values="0 0 0 0 0 0 0 0 0 0 0 0 0 0 0 0 0 0 0.35 0"/>
<feBlend mode="normal" in2="shape" result="effect1_innerShadow_125_23"/>
</filter>
<radialGradient id="paint0_radial_125_23" cx="0" cy="0" r="1" gradientUnits="userSpaceOnUse" gradientTransform="translate(221.821 153.316) rotate(139.187) scale(196.72 679.062)">
<stop offset="0.241869" stop-color="#FF4D00"/>
<stop offset="0.426549" stop-color="#FFC700"/>
<stop offset="0.724535" stop-color="#FF4D00"/>
<stop offset="1" stop-color="#FFB800"/>
</radialGradient>
</defs>
</svg>
