<svg width="1206" height="666" viewBox="0 0 1206 666" fill="none" xmlns="http://www.w3.org/2000/svg">
<g filter="url(#filter0_i_115_32)">
<path d="M20 275.756C20 283.881 27.2563 284.466 35.2935 283.563C45.6384 282.401 48.6806 270.826 52.5446 263.881C57.0486 255.785 59.8393 273.113 61.7208 276.636C65.0956 282.954 68.6841 293.569 78.3601 293.569C91.7173 293.569 101.492 264.017 113.719 273.007C121.375 278.637 124.569 288.36 132.805 293.569C146.352 302.136 158.928 295.556 165.35 283.233C180.779 253.625 191.627 220.804 202.788 189.77C212.901 161.651 221.494 126.594 240.716 102.024C250.345 89.7172 262.827 87.9992 267.633 104.883C276.694 136.716 276.206 176.722 268.612 208.572C258.489 251.029 238.296 287.846 238.025 332.054C237.83 363.708 230.868 421.815 276.32 432.774C330.665 445.878 323.299 153.473 397.077 129.734C442.338 115.17 456.701 167.701 467.061 195.818C488.637 254.379 499.775 314.144 517.713 373.398C521.361 385.451 532.108 417.182 554.295 409.463C561.195 407.063 566.068 398.63 569.344 393.41C582.293 372.769 591.31 349.958 599.197 327.436C618.767 271.551 627.137 214.032 634.311 156.013C639.388 114.943 638.073 48.0247 685.574 24.8349C692.261 21.5703 705.375 17.6667 712.736 21.7561C719.002 25.2373 720.684 35.6509 721.912 40.7786C731.73 81.7643 736.083 124.09 739.897 165.799C752.959 308.621 754.485 451.189 760.452 594.191C760.997 607.253 759.401 630.575 769.872 641.472C777.455 649.363 780.511 642.558 783.453 635.314C802.442 588.555 816.237 540.332 829.945 492.151C852.196 413.948 870.787 335.607 878.64 255.084C883.663 203.579 886.917 151.924 894.056 100.595C895.616 89.3782 898.266 73.4015 907.514 64.8591C927.937 45.9951 942.577 124.228 943.729 129.404C961.806 210.633 962.021 294.126 979.21 375.487C982.074 389.041 987.338 418.933 1006.13 423.758C1012.96 425.513 1019.68 414.658 1022.52 411.003C1042.83 384.868 1060.94 357.175 1079.78 330.185C1098.27 303.697 1117.91 272.434 1151.97 260.362C1157.12 258.536 1167.37 253.42 1171.79 258.713C1181.7 270.588 1181.85 293.25 1185 307.424" stroke="url(#paint0_radial_115_32)" stroke-width="40" stroke-linecap="round"/>
</g>
<defs>
<filter id="filter0_i_115_32" x="0" y="-0.000732422" width="1205" height="669.006" filterUnits="userSpaceOnUse" color-interpolation-filters="sRGB">
<feFlood flood-opacity="0" result="BackgroundImageFix"/>
<feBlend mode="normal" in="SourceGraphic" in2="BackgroundImageFix" result="shape"/>
<feColorMatrix in="SourceAlpha" type="matrix" values="0 0 0 0 0 0 0 0 0 0 0 0 0 0 0 0 0 0 127 0" result="hardAlpha"/>
<feOffset dy="4"/>
<feGaussianBlur stdDeviation="2"/>
<feComposite in2="hardAlpha" operator="arithmetic" k2="-1" k3="1"/>
<feColorMatrix type="matrix" values="0 0 0 0 0 0 0 0 0 0 0 0 0 0 0 0 0 0 0.35 0"/>
<feBlend mode="normal" in2="shape" result="effect1_innerShadow_115_32"/>
</filter>
<radialGradient id="paint0_radial_115_32" cx="0" cy="0" r="1" gradientUnits="userSpaceOnUse" gradientTransform="translate(571.5 107.5) rotate(75.5699) scale(423.356 1185.9)">
<stop offset="0.0998434" stop-color="#FFC530"/>
<stop offset="0.340965" stop-color="#FF4D00"/>
<stop offset="0.515721" stop-color="#FF8C19"/>
<stop offset="0.59852" stop-color="#FFC700"/>
<stop offset="0.716289" stop-color="#FF4D00"/>
</radialGradient>
</defs>
</svg>
