<svg width="340" height="436" viewBox="0 0 340 436" fill="none" xmlns="http://www.w3.org/2000/svg">
<g filter="url(#filter0_i_110_36)">
<path d="M35.8029 352.681C49.0794 369.479 74.7808 416.322 101.46 395.235C123.094 378.135 109.393 341.796 100.172 321.558C91.5151 302.556 80.0452 284.772 72.3569 265.376C62.9914 241.75 58.7688 218.11 53.6826 193.327C49.2932 171.94 39.4302 134.103 64.0898 121.365C82.8759 111.66 110.142 119.882 122.886 136.006C136.757 153.554 146.677 170.482 154.307 191.575C162.712 214.806 172.894 237.155 184.108 259.151C193.845 278.25 205.016 296.147 218.319 312.978C222.685 318.503 229.593 327.223 237.929 325.488C256.168 321.692 247.269 293.185 244.727 282.151C242.923 274.324 241.479 266.444 239.902 258.571C237.713 247.645 232.386 237.704 229.016 227.128C225.355 215.641 220.355 204.61 216.167 193.3C210.855 178.954 206.935 164.266 202.621 149.607C197.551 132.383 188.889 108.97 193.71 90.9839C195.959 82.589 198.943 73.4469 209.002 74.1125C227.942 75.3658 239.049 84.0105 249.968 98.2166C260.275 111.625 265.102 128.299 274.964 142.043C280.756 150.116 290.252 167.303 300.733 157.171C304.091 153.923 304.28 141.043 304.482 136.922C305.318 119.862 300.293 102.934 298.626 86.0701C297.391 73.57 293.924 61.0921 293.316 48.5992C293.078 43.7138 292.203 38.9077 296.342 35.636" stroke="url(#paint0_linear_110_36)" stroke-width="70" stroke-linecap="round"/>
</g>
<defs>
<filter id="filter0_i_110_36" x="0.801758" y="0.634521" width="338.772" height="438.958" filterUnits="userSpaceOnUse" color-interpolation-filters="sRGB">
<feFlood flood-opacity="0" result="BackgroundImageFix"/>
<feBlend mode="normal" in="SourceGraphic" in2="BackgroundImageFix" result="shape"/>
<feColorMatrix in="SourceAlpha" type="matrix" values="0 0 0 0 0 0 0 0 0 0 0 0 0 0 0 0 0 0 127 0" result="hardAlpha"/>
<feOffset dy="4"/>
<feGaussianBlur stdDeviation="2"/>
<feComposite in2="hardAlpha" operator="arithmetic" k2="-1" k3="1"/>
<feColorMatrix type="matrix" values="0 0 0 0 0 0 0 0 0 0 0 0 0 0 0 0 0 0 0.35 0"/>
<feBlend mode="normal" in2="shape" result="effect1_innerShadow_110_36"/>
</filter>
<linearGradient id="paint0_linear_110_36" x1="262.921" y1="-108.76" x2="85.5" y2="445.5" gradientUnits="userSpaceOnUse">
<stop offset="0.194273" stop-color="#FF4D00"/>
<stop offset="0.353388" stop-color="#FFC700"/>
<stop offset="0.738668" stop-color="#FF4D00"/>
<stop offset="1" stop-color="#FFC700"/>
</linearGradient>
</defs>
</svg>
