<svg width="352" height="427" viewBox="0 0 352 427" fill="none" xmlns="http://www.w3.org/2000/svg">
<g filter="url(#filter0_i_158_105)">
<path d="M16.2934 411.833C31.5567 411.833 40.1057 401.759 48.6283 389.846C59.8784 374.12 70.5877 354.119 75.2148 335.235C79.4854 317.807 80.426 300.946 71.1909 285.224C63.674 272.427 52.8489 261.281 37.7063 258.709C32.5945 257.841 22.5135 255.97 19.5269 261.943C15.7187 269.559 15 276.789 15 285.224C15 313.082 43.4409 336.079 65.2988 348.96C77.8265 356.342 91.7782 361.8 106.041 364.552C115.023 366.286 128.456 369.088 137.226 365.127C157.938 355.774 164.408 335.606 167.621 314.541C170.032 298.737 172.244 282.901 174.663 267.116C176.731 253.616 182.095 239.779 192.914 230.901C211.196 215.901 237.737 215.281 256.865 228.458C271.661 238.651 292.804 260.621 285.32 281.2C280.793 293.649 260.144 291.487 249.967 291.547C230.089 291.666 213.384 290.892 196.219 279.907C187.336 274.221 177.337 266.173 172.866 256.338C166.212 241.7 167.222 224.16 167.621 208.482C168.57 171.154 211.963 154.328 242.71 149.992C270.084 146.132 304.325 144.19 323.978 121.466C342.439 100.12 338.265 61.1955 325.128 38.6163C310.643 13.7206 275.968 13.3563 250.398 16.1974C243.713 16.9402 225.284 31.5744 240.051 31.5744" stroke="url(#paint0_radial_158_105)" stroke-width="30" stroke-linecap="round"/>
</g>
<defs>
<filter id="filter0_i_158_105" x="0" y="0" width="351.43" height="430.833" filterUnits="userSpaceOnUse" color-interpolation-filters="sRGB">
<feFlood flood-opacity="0" result="BackgroundImageFix"/>
<feBlend mode="normal" in="SourceGraphic" in2="BackgroundImageFix" result="shape"/>
<feColorMatrix in="SourceAlpha" type="matrix" values="0 0 0 0 0 0 0 0 0 0 0 0 0 0 0 0 0 0 127 0" result="hardAlpha"/>
<feOffset dy="4"/>
<feGaussianBlur stdDeviation="2.5"/>
<feComposite in2="hardAlpha" operator="arithmetic" k2="-1" k3="1"/>
<feColorMatrix type="matrix" values="0 0 0 0 0 0 0 0 0 0 0 0 0 0 0 0 0 0 0.35 0"/>
<feBlend mode="normal" in2="shape" result="effect1_innerShadow_158_105"/>
</filter>
<radialGradient id="paint0_radial_158_105" cx="0" cy="0" r="1" gradientUnits="userSpaceOnUse" gradientTransform="translate(175.715 213.417) rotate(90) scale(198.417 160.715)">
<stop stop-color="#FF4D00"/>
<stop offset="1" stop-color="#FFC530"/>
</radialGradient>
</defs>
</svg>
