<svg width="730" height="519" viewBox="0 0 730 519" fill="none" xmlns="http://www.w3.org/2000/svg">
<g filter="url(#filter0_i_113_2)">
<path d="M705.226 253.398C699.945 245.093 697.276 244.214 687.116 246.898C675.689 249.918 675.351 254.914 671.862 264.674C663.598 287.789 637.445 235.309 625.543 242.876C608.877 253.474 615.943 286.524 600.718 294.692C594.758 297.89 576.756 276.528 573.185 273.374C563.183 264.54 550.058 246.281 537.293 241.84C511.859 232.993 502.521 388.86 498.579 404.679C494.63 420.521 487.546 436.788 473.114 445.719C457.527 455.366 443.703 436.876 435.67 425.423C383.801 351.465 441.387 267.601 454.849 190.831C462.21 148.857 459.083 100.319 432.74 64.9608C403.987 26.3686 352.496 22.8541 308.268 25.7675C234.984 30.5949 167.328 61.321 106.602 101.353C52.768 136.843 21.737 187.315 24.7111 253.442C26.2158 286.898 36.3369 318.821 51.8166 348.336C60.2969 364.505 71.9064 383.921 89.5643 391.58C107.247 399.249 127.708 393.763 145.179 388.674C170.102 381.415 194.738 371.392 217.83 359.561C230.576 353.031 259.624 340.525 255.124 321.248C248.362 292.281 217.891 273.512 191.84 265.2C163.015 256.002 124.863 249.318 98.6834 269.148C63.5037 295.794 85.1027 355.332 98.7426 387.452C121.422 440.857 154.972 472.678 211.645 485.874C246.4 493.966 292.937 500.664 326.372 483.119C329.053 481.713 332.915 475.959 327.76 479.441C321.701 483.535 297.167 486.863 293.5 492.97" stroke="url(#paint0_radial_113_2)" stroke-width="49" stroke-linecap="round"/>
</g>
<defs>
<filter id="filter0_i_113_2" x="0.0146484" y="0.470825" width="729.716" height="522.195" filterUnits="userSpaceOnUse" color-interpolation-filters="sRGB">
<feFlood flood-opacity="0" result="BackgroundImageFix"/>
<feBlend mode="normal" in="SourceGraphic" in2="BackgroundImageFix" result="shape"/>
<feColorMatrix in="SourceAlpha" type="matrix" values="0 0 0 0 0 0 0 0 0 0 0 0 0 0 0 0 0 0 127 0" result="hardAlpha"/>
<feOffset dy="4"/>
<feGaussianBlur stdDeviation="2.5"/>
<feComposite in2="hardAlpha" operator="arithmetic" k2="-1" k3="1"/>
<feColorMatrix type="matrix" values="0 0 0 0 0 0 0 0 0 0 0 0 0 0 0 0 0 0 0.35 0"/>
<feBlend mode="normal" in2="shape" result="effect1_innerShadow_113_2"/>
</filter>
<radialGradient id="paint0_radial_113_2" cx="0" cy="0" r="1" gradientUnits="userSpaceOnUse" gradientTransform="translate(189.5 348.5) rotate(-50.9106) scale(312.434 1467.59)">
<stop offset="0.0999301" stop-color="#FFC530"/>
<stop offset="0.309271" stop-color="#FF8E1A"/>
<stop offset="0.402924" stop-color="#FF4D00"/>
<stop offset="0.756386" stop-color="#FFC700"/>
<stop offset="1" stop-color="#FF4D00"/>
</radialGradient>
</defs>
</svg>
