<svg width="100" height="100" viewBox="0 0 100 100" fill="none" xmlns="http://www.w3.org/2000/svg">
<path d="M28.5 71.5C29.4167 72.4167 30.5833 72.875 32 72.875C33.4167 72.875 34.5833 72.4167 35.5 71.5L50 57L64.625 71.625C65.5417 72.5417 66.6883 72.9783 68.065 72.935C69.4383 72.895 70.5833 72.4167 71.5 71.5C72.4167 70.5833 72.875 69.4167 72.875 68C72.875 66.5833 72.4167 65.4167 71.5 64.5L57 50L71.625 35.375C72.5417 34.4583 72.9783 33.3117 72.935 31.935C72.895 30.5617 72.4167 29.4167 71.5 28.5C70.5833 27.5833 69.4167 27.125 68 27.125C66.5833 27.125 65.4167 27.5833 64.5 28.5L50 43L35.375 28.375C34.4583 27.4583 33.3133 27.02 31.94 27.06C30.5633 27.1033 29.4167 27.5833 28.5 28.5C27.5833 29.4167 27.125 30.5833 27.125 32C27.125 33.4167 27.5833 34.5833 28.5 35.5L43 50L28.375 64.625C27.4583 65.5417 27.0217 66.6867 27.065 68.06C27.105 69.4367 27.5833 70.5833 28.5 71.5ZM50 100C43.0833 100 36.5833 98.6867 30.5 96.06C24.4167 93.4367 19.125 89.875 14.625 85.375C10.125 80.875 6.56333 75.5833 3.94 69.5C1.31333 63.4167 0 56.9167 0 50C0 43.0833 1.31333 36.5833 3.94 30.5C6.56333 24.4167 10.125 19.125 14.625 14.625C19.125 10.125 24.4167 6.56167 30.5 3.935C36.5833 1.31167 43.0833 0 50 0C56.9167 0 63.4167 1.31167 69.5 3.935C75.5833 6.56167 80.875 10.125 85.375 14.625C89.875 19.125 93.4367 24.4167 96.06 30.5C98.6867 36.5833 100 43.0833 100 50C100 56.9167 98.6867 63.4167 96.06 69.5C93.4367 75.5833 89.875 80.875 85.375 85.375C80.875 89.875 75.5833 93.4367 69.5 96.06C63.4167 98.6867 56.9167 100 50 100Z" fill="#B90000"/>
</svg>
