<svg width="78" height="80" viewBox="0 0 78 80" fill="none" xmlns="http://www.w3.org/2000/svg">
<path d="M68.6373 43.92C68.7973 42.64 68.9173 41.36 68.9173 40C68.9173 38.64 68.7973 37.36 68.6373 36.08L77.0773 29.48C77.8373 28.88 78.0373 27.8 77.5573 26.92L69.5573 13.08C69.1973 12.44 68.5173 12.08 67.7973 12.08C67.5573 12.08 67.3173 12.12 67.1173 12.2L57.1573 16.2C55.0773 14.6 52.8373 13.28 50.3973 12.28L48.8773 1.68C48.7573 0.72 47.9173 0 46.9173 0H30.9173C29.9173 0 29.0773 0.72 28.9573 1.68L27.4373 12.28C24.9973 13.28 22.7573 14.64 20.6773 16.2L10.7173 12.2C10.4773 12.12 10.2373 12.08 9.99733 12.08C9.31733 12.08 8.63733 12.44 8.27733 13.08L0.277326 26.92C-0.242674 27.8 -0.00267321 28.88 0.757327 29.48L9.19733 36.08C9.03733 37.36 8.91733 38.68 8.91733 40C8.91733 41.32 9.03733 42.64 9.19733 43.92L0.757327 50.52C-0.00267321 51.12 -0.202674 52.2 0.277326 53.08L8.27733 66.92C8.63733 67.56 9.31733 67.92 10.0373 67.92C10.2773 67.92 10.5173 67.88 10.7173 67.8L20.6773 63.8C22.7573 65.4 24.9973 66.72 27.4373 67.72L28.9573 78.32C29.0773 79.28 29.9173 80 30.9173 80H46.9173C47.9173 80 48.7573 79.28 48.8773 78.32L50.3973 67.72C52.8373 66.72 55.0773 65.36 57.1573 63.8L67.1173 67.8C67.3573 67.88 67.5973 67.92 67.8373 67.92C68.5173 67.92 69.1973 67.56 69.5573 66.92L77.5573 53.08C78.0373 52.2 77.8373 51.12 77.0773 50.52L68.6373 43.92ZM60.7173 37.08C60.8773 38.32 60.9173 39.16 60.9173 40C60.9173 40.84 60.8373 41.72 60.7173 42.92L60.1573 47.44L63.7173 50.24L68.0373 53.6L65.2373 58.44L60.1573 56.4L55.9973 54.72L52.3973 57.44C50.6773 58.72 49.0373 59.68 47.3973 60.36L43.1573 62.08L42.5173 66.6L41.7173 72H36.1173L35.3573 66.6L34.7173 62.08L30.4773 60.36C28.7573 59.64 27.1573 58.72 25.5573 57.52L21.9173 54.72L17.6773 56.44L12.5973 58.48L9.79733 53.64L14.1173 50.28L17.6773 47.48L17.1173 42.96C16.9973 41.72 16.9173 40.8 16.9173 40C16.9173 39.2 16.9973 38.28 17.1173 37.08L17.6773 32.56L14.1173 29.76L9.79733 26.4L12.5973 21.56L17.6773 23.6L21.8373 25.28L25.4373 22.56C27.1573 21.28 28.7973 20.32 30.4373 19.64L34.6773 17.92L35.3173 13.4L36.1173 8H41.6773L42.4373 13.4L43.0773 17.92L47.3173 19.64C49.0373 20.36 50.6373 21.28 52.2373 22.48L55.8773 25.28L60.1173 23.56L65.1973 21.52L67.9973 26.36L63.7173 29.76L60.1573 32.56L60.7173 37.08ZM38.9173 24C30.0773 24 22.9173 31.16 22.9173 40C22.9173 48.84 30.0773 56 38.9173 56C47.7573 56 54.9173 48.84 54.9173 40C54.9173 31.16 47.7573 24 38.9173 24ZM38.9173 48C34.5173 48 30.9173 44.4 30.9173 40C30.9173 35.6 34.5173 32 38.9173 32C43.3173 32 46.9173 35.6 46.9173 40C46.9173 44.4 43.3173 48 38.9173 48Z" fill="white"/>
</svg>
