<svg width="98" height="100" viewBox="0 0 98 100" fill="none" xmlns="http://www.w3.org/2000/svg">
<path d="M85.8229 54.8958C86.0313 53.3333 86.1354 51.7187 86.1354 50C86.1354 48.3333 86.0313 46.6667 85.7708 45.1042L96.3438 36.875C97.2813 36.1458 97.5417 34.7396 96.9688 33.6979L86.9688 16.4062C86.3438 15.2604 85.0417 14.8958 83.8958 15.2604L71.4479 20.2604C68.8437 18.2812 66.0833 16.6146 63.0104 15.3646L61.1354 2.13542C60.9271 0.885416 59.8854 0 58.6354 0H38.6354C37.3854 0 36.3958 0.885416 36.1875 2.13542L34.3125 15.3646C31.2396 16.6146 28.4271 18.3333 25.875 20.2604L13.4271 15.2604C12.2813 14.8437 10.9792 15.2604 10.3542 16.4062L0.406252 33.6979C-0.218748 34.7917 -0.0104154 36.1458 1.03125 36.875L11.6042 45.1042C11.3438 46.6667 11.1354 48.3854 11.1354 50C11.1354 51.6146 11.2396 53.3333 11.5 54.8958L0.927085 63.125C-0.0104154 63.8542 -0.270831 65.2604 0.302085 66.3021L10.3021 83.5938C10.9271 84.7396 12.2292 85.1042 13.375 84.7396L25.8229 79.7396C28.4271 81.7187 31.1875 83.3854 34.2604 84.6354L36.1354 97.8646C36.3958 99.1146 37.3854 100 38.6354 100H58.6354C59.8854 100 60.9271 99.1146 61.0833 97.8646L62.9583 84.6354C66.0313 83.3854 68.8438 81.7187 71.3958 79.7396L83.8438 84.7396C84.9896 85.1562 86.2917 84.7396 86.9167 83.5938L96.9167 66.3021C97.5417 65.1562 97.2813 63.8542 96.2917 63.125L85.8229 54.8958ZM48.6354 68.75C38.3229 68.75 29.8854 60.3125 29.8854 50C29.8854 39.6875 38.3229 31.25 48.6354 31.25C58.9479 31.25 67.3854 39.6875 67.3854 50C67.3854 60.3125 58.9479 68.75 48.6354 68.75Z" fill="#59402D"/>
</svg>
