<svg width="26" height="25" viewBox="0 0 26 25" fill="none" xmlns="http://www.w3.org/2000/svg">
<path d="M7.19444 0C3.35972 0 0.25 3.10972 0.25 6.94444V18.0556C0.25 21.8903 3.35972 25 7.19444 25H18.3056C22.1403 25 25.25 21.8903 25.25 18.0556V6.94444C25.25 3.10972 22.1403 0 18.3056 0H7.19444ZM21.0833 2.77778C21.85 2.77778 22.4722 3.4 22.4722 4.16667C22.4722 4.93333 21.85 5.55556 21.0833 5.55556C20.3167 5.55556 19.6944 4.93333 19.6944 4.16667C19.6944 3.4 20.3167 2.77778 21.0833 2.77778ZM12.75 5.55556C16.5847 5.55556 19.6944 8.66528 19.6944 12.5C19.6944 16.3347 16.5847 19.4444 12.75 19.4444C8.91528 19.4444 5.80556 16.3347 5.80556 12.5C5.80556 8.66528 8.91528 5.55556 12.75 5.55556ZM12.75 8.33333C11.6449 8.33333 10.5851 8.77232 9.80372 9.55372C9.02232 10.3351 8.58333 11.3949 8.58333 12.5C8.58333 13.6051 9.02232 14.6649 9.80372 15.4463C10.5851 16.2277 11.6449 16.6667 12.75 16.6667C13.8551 16.6667 14.9149 16.2277 15.6963 15.4463C16.4777 14.6649 16.9167 13.6051 16.9167 12.5C16.9167 11.3949 16.4777 10.3351 15.6963 9.55372C14.9149 8.77232 13.8551 8.33333 12.75 8.33333Z" fill="#59402D"/>
</svg>
